<svg xmlns="http://www.w3.org/2000/svg" viewBox="0 0 32 32" fill="none">
  <path fill="#F25D00" d="M16 32c8.837 0 16-7.163 16-16S24.837 0 16 0 0 7.163 0 16s7.163 16 16 16" />
  <path
    fill="#fff"
    d="M9.989 12.665v4.879c0 .168.136.304.304.304h4.878a.304.304 0 0 0 .304-.304v-4.879a.304.304 0 0 0-.304-.304h-4.878a.304.304 0 0 0-.304.304M9.99 19.521V24.4c0 .168.136.304.304.304h4.879a.304.304 0 0 0 .304-.304V19.52a.304.304 0 0 0-.304-.304h-4.879a.304.304 0 0 0-.304.304M16.846 19.522V24.4c0 .168.137.304.304.304h4.879a.304.304 0 0 0 .304-.304v-4.878a.304.304 0 0 0-.304-.304H17.15a.304.304 0 0 0-.304.304M16.846 12.664v4.878c0 .168.137.304.304.304h4.879a.304.304 0 0 0 .304-.304v-4.878a.304.304 0 0 0-.304-.304H17.15a.304.304 0 0 0-.304.304M15.171 5.504h-4.878a.304.304 0 0 0-.304.304v4.878c0 .168.136.304.304.304h4.878a.304.304 0 0 0 .304-.304V5.808a.304.304 0 0 0-.304-.304"
  />
</svg>
